<svg width="435" height="120" viewBox="0 0 308 80" fill="none" xmlns="http://www.w3.org/2000/svg">
  <g clip-path="url(#clip0_105_776)">
    <path d="M67.5349 47.4419V59.5225L59.5225 67.5349H47.814L45.5814 65.3023L42.2325 68.6512L45.5814 72H72V45.2093L45.9535 19.1628L42.6046 22.5116L67.5349 47.4419Z" fill="#FFBD30"></path>
    <path d="M47.4419 12.4651H59.5225L67.5349 20.4775V32.186L65.3024 34.4186L68.6512 37.7675L72 34.4186V8H45.2093L18.7907 34.4186L22.1395 37.7675L47.4419 12.4651Z" fill="#FF615E"></path>
    <path d="M32.5581 67.5349H20.4775L12.4651 59.5225V47.814L14.6977 45.5814L11.3488 42.2326L8 45.5814V72H34.7907L61.2093 45.5814L57.8604 42.2326L32.5581 67.5349Z" fill="white"></path>
    <path d="M12.4651 32.5581V20.4775L20.4775 12.4651H32.186L34.4186 14.6977L37.7675 11.3488L34.4186 8H8V34.7907L34.4186 61.2093L37.7675 57.8604L12.4651 32.5581Z" fill="#00C899"></path>
  </g>
  <path d="M218.886 60.555C218.971 60.7386 219.153 60.8489 219.346 60.8489C219.406 60.8489 219.467 60.8372 219.528 60.8164L221.013 60.2429C221.142 60.191 221.247 60.0889 221.3 59.9582C221.352 59.8275 221.348 59.6811 221.289 59.5535L211.04 37.3224L220.1 22.4612C220.241 22.2289 220.175 21.9264 219.952 21.7739L218.666 20.903C218.58 20.8461 218.481 20.8156 218.381 20.8156C218.346 20.8156 218.308 20.8192 218.273 20.8273C218.138 20.8573 218.021 20.9407 217.948 21.0586L206.47 39.8689V4.00839C206.47 3.72776 206.244 3.5 205.963 3.5H204.405C204.124 3.5 203.899 3.72776 203.899 4.00839V60.0533C203.899 60.3344 204.124 60.5616 204.405 60.5616H205.963C206.244 60.5616 206.47 60.3344 206.47 60.0533V44.8022L209.368 39.9665L218.886 60.555Z" fill="white"></path>
  <path d="M185.163 59.7376C186.314 60.2912 187.704 60.5597 189.414 60.5597C191.197 60.5597 192.624 60.3095 193.78 59.7915C194.965 59.2496 195.912 58.52 196.595 57.6202C197.29 56.7046 197.786 55.6359 198.07 54.4407C198.358 53.2287 198.504 51.9476 198.504 50.637C198.504 50.0117 198.45 49.3305 198.35 48.6675C198.24 47.9441 198.079 47.2801 197.852 46.6218C197.575 45.8933 197.223 45.2151 196.801 44.5903C196.282 43.8623 195.734 43.2349 195.12 42.6645L186.403 34.8369C185.623 34.1668 185.083 33.4109 184.796 32.5893C184.494 31.7236 184.328 30.5705 184.305 29.171C184.305 28.2233 184.405 27.3591 184.612 26.5294C184.814 25.717 185.15 25.0022 185.646 24.3357C186.087 23.7134 186.682 23.2198 187.464 22.8263C188.246 22.4323 189.202 22.2325 190.304 22.2325C191.252 22.2325 192.093 22.4084 192.786 22.745C193.496 23.1263 194.078 23.5868 194.516 24.1161C194.989 24.6865 195.34 25.325 195.56 26.0098C195.785 26.7363 195.967 27.7048 195.982 28.264L196.019 29.6122C196.027 29.8883 196.251 30.1074 196.526 30.1074H197.929C198.063 30.1074 198.193 30.0535 198.288 29.9574C198.383 29.8613 198.436 29.7312 198.435 29.596C198.435 29.596 198.43 28.656 198.43 28.175C198.43 27.6194 198.197 26.02 197.887 25.0327C197.588 24.0795 197.115 23.202 196.439 22.353C195.81 21.5609 194.968 20.9092 193.935 20.4171C192.929 19.9392 191.699 19.6962 190.279 19.6962C188.726 19.6962 187.379 19.9636 186.276 20.4928C185.208 21.0048 184.307 21.7246 183.598 22.6296C182.927 23.4862 182.438 24.505 182.144 25.66C181.867 26.7734 181.733 27.9219 181.733 29.1704C181.733 30.0001 181.765 30.6605 181.835 31.2477C181.908 31.8573 182.053 32.4846 182.279 33.1658C182.49 33.8044 182.786 34.3992 183.173 34.9721C183.507 35.5003 183.976 36.0306 184.697 36.6971L193.369 44.4825C194.224 45.2974 194.884 46.2385 195.325 47.2659C195.761 48.362 195.982 49.4972 195.982 50.639C195.982 51.5079 195.905 52.4016 195.743 53.4372C195.58 54.3299 195.258 55.1255 194.787 55.8032C194.299 56.5038 193.634 57.0594 192.798 57.458C191.938 57.8906 190.831 58.1011 189.414 58.1011C188.184 58.1011 187.194 57.8937 186.386 57.4636C185.55 57.0188 184.875 56.4478 184.374 55.7595C183.841 55.0589 183.454 54.2496 183.223 53.3411C182.967 52.428 182.796 50.4891 182.794 50.4708C182.783 50.3325 182.714 50.2049 182.606 50.1174C182.516 50.0442 182.404 50.0061 182.29 50.0061C182.267 50.0061 182.244 50.0081 182.221 50.0112L180.589 50.2338C180.32 50.271 180.128 50.5145 180.153 50.7849C180.162 50.8846 180.384 53.242 180.743 54.4001C181.127 55.6405 181.659 56.6675 182.363 57.5282C183.092 58.4534 184.035 59.1977 185.163 59.7376Z" fill="white"></path>
  <path fill-rule="evenodd" clip-rule="evenodd" d="M234.485 60.5612C232.863 60.5612 231.55 60.2902 230.467 59.7315C229.389 59.2023 228.51 58.4784 227.864 57.5856C227.203 56.7066 226.733 55.696 226.471 54.5892C226.2 53.5496 226.061 52.425 226.061 51.2583V28.9956C226.061 27.8299 226.198 26.7058 226.472 25.6545C226.726 24.5843 227.196 23.5813 227.87 22.687C228.497 21.8187 229.374 21.0877 230.466 20.5239C231.589 19.9728 232.937 19.6957 234.483 19.6957C236.007 19.6957 237.332 19.9738 238.42 20.5218C239.462 21.046 240.344 21.7638 241.04 22.654C241.714 23.5503 242.179 24.5213 242.467 25.6296C242.746 26.8055 242.878 27.8954 242.878 28.9707V37.7129C242.878 37.9935 242.653 38.2213 242.372 38.2213H228.63V51.2125C228.63 52.1032 228.733 52.9573 228.936 53.7499C229.119 54.5806 229.432 55.2928 229.896 55.9471C230.324 56.5801 230.9 57.0706 231.666 57.457C232.405 57.8414 233.324 58.0254 234.482 58.0254C235.571 58.0254 236.481 57.8571 237.185 57.5267C237.89 57.2171 238.476 56.7768 238.94 56.2171C239.39 55.6767 239.705 55.062 239.906 54.3381C240.116 53.6106 240.31 52.0142 240.312 51.998C240.343 51.7418 240.559 51.5501 240.814 51.5501L242.382 51.576C242.526 51.5791 242.663 51.6426 242.757 51.7535C242.852 51.8638 242.894 52.0087 242.874 52.1525C242.864 52.2374 242.593 54.243 242.315 55.2135C241.992 56.242 241.512 57.1469 240.883 57.9125C240.247 58.7127 239.384 59.365 238.326 59.8464C237.278 60.3208 235.984 60.5612 234.485 60.5612ZM240.311 35.6346V28.9707C240.311 28.1562 240.215 27.3235 240.026 26.4933C239.845 25.6921 239.53 24.986 239.068 24.3337C238.623 23.7292 238.037 23.2305 237.283 22.8172C236.516 22.4313 235.569 22.2315 234.485 22.2315C233.376 22.2315 232.43 22.4308 231.675 22.8228C230.906 23.232 230.327 23.7257 229.903 24.3322C229.438 24.9875 229.125 25.6936 228.943 26.4938C228.737 27.3022 228.635 28.1308 228.635 28.9712V35.6351L240.311 35.6346Z" fill="white"></path>
  <path d="M255.735 59.6242C256.774 60.2007 258.054 60.5068 259.665 60.5607L261.397 60.5612C261.677 60.5612 261.904 60.3339 261.904 60.0528V58.4692C261.904 58.3324 261.849 58.2038 261.754 58.1082C261.659 58.0137 261.531 57.9608 261.397 57.9608L259.677 57.974C258.549 57.9511 257.656 57.7447 256.937 57.3365C256.19 56.9374 255.627 56.4468 255.206 55.822C254.744 55.1708 254.429 54.4636 254.247 53.6629C254.058 52.8342 253.963 51.9517 253.963 51.0361V22.2808H261.397C261.677 22.2808 261.904 22.053 261.904 21.7724V20.2035C261.904 19.9224 261.677 19.6951 261.397 19.6951H253.963L253.964 7.5671C253.964 7.43238 253.91 7.30325 253.816 7.20767C253.721 7.11159 253.592 7.05872 253.458 7.05872H251.899C251.619 7.05872 251.393 7.28647 251.393 7.5671V19.6941H247.139C246.859 19.6941 246.633 19.9219 246.633 20.2025V21.7714C246.633 22.0525 246.859 22.2798 247.139 22.2798H251.393V51.0351C251.393 52.182 251.522 53.3111 251.777 54.3873C252.035 55.5099 252.506 56.5281 253.167 57.4056C253.781 58.2805 254.621 59.0065 255.735 59.6242Z" fill="white"></path>
  <path d="M304.143 60.5611C303.863 60.5611 303.636 60.3339 303.636 60.0528V29.0199C303.636 28.1897 303.541 27.3483 303.352 26.5176C303.17 25.7164 302.856 25.0103 302.393 24.358C301.953 23.7602 301.373 23.2604 300.628 22.838C299.885 22.4297 298.963 22.2309 297.81 22.2309C296.815 22.2309 295.95 22.4353 295.239 22.838C294.473 23.2721 293.877 23.7749 293.413 24.3748C292.913 25.0449 292.559 25.7571 292.337 26.5436C292.086 27.3484 291.961 28.1775 291.961 29.0199V60.0528C291.961 60.3339 291.734 60.5611 291.454 60.5611H289.896C289.615 60.5611 289.389 60.3339 289.389 60.0528V4.00839C289.389 3.72776 289.615 3.5 289.896 3.5H291.454C291.734 3.5 291.961 3.72776 291.961 4.00839V22.1882C292.513 21.5645 293.149 21.0571 293.882 20.6544C295.056 20.0088 296.341 19.6951 297.811 19.6951C299.357 19.6951 300.706 19.9722 301.819 20.5192C302.905 21.0795 303.788 21.807 304.448 22.6865C305.112 23.6066 305.574 24.6051 305.824 25.6646C306.079 26.7429 306.209 27.8633 306.209 28.994V60.0528C306.209 60.3339 305.982 60.5611 305.702 60.5611H304.143Z" fill="white"></path>
  <path d="M271.642 59.7304C272.709 60.2805 274.052 60.5606 275.634 60.5606C277.11 60.5606 278.381 60.3197 279.406 59.8402C280.456 59.3512 281.297 58.7315 281.976 57.9424C282.661 57.1443 283.168 56.2287 283.485 55.2221C283.492 55.1977 283.981 53.2282 284.046 52.2216H284.055C284.061 52.127 284.147 51.3792 284.225 50.7112C284.242 50.5668 284.197 50.4224 284.102 50.3136C284.006 50.2048 283.868 50.1428 283.723 50.1428L282.17 50.1433C281.91 50.1433 281.694 50.3396 281.667 50.5988C281.667 50.5988 281.568 51.5709 281.51 52.0147L281.492 52.1647L281.487 52.1968C281.422 52.7043 281.292 53.708 281.11 54.3405C280.88 55.0594 280.537 55.6979 280.097 56.2287C279.6 56.7991 279.004 57.2414 278.322 57.5424C277.6 57.8611 276.694 58.0223 275.631 58.0223C274.508 58.0223 273.572 57.8316 272.846 57.4564C272.091 57.0624 271.521 56.5708 271.098 55.944C270.636 55.2927 270.322 54.5876 270.137 53.7722C269.933 52.9786 269.831 52.123 269.831 51.2333V29.0189C269.831 28.1475 269.93 27.3331 270.139 26.5161C270.321 25.7154 270.634 25.0088 271.099 24.3545C271.517 23.7551 272.093 23.2594 272.857 22.84C273.563 22.4521 274.633 22.2294 275.79 22.2294C276.784 22.2294 277.777 22.4246 278.43 22.7424C279.14 23.1237 279.723 23.5843 280.16 24.113C280.633 24.6839 280.985 25.3224 281.204 26.0062C281.43 26.7352 281.613 27.7042 281.626 28.2599L281.663 29.6096C281.671 29.8847 281.894 30.1043 282.169 30.1043H283.573C283.708 30.1043 283.837 30.0499 283.932 29.9543C284.027 29.8577 284.081 29.7281 284.08 29.5929C284.08 29.5929 284.073 28.6534 284.073 28.1724C284.073 27.6168 283.839 26.0169 283.532 25.0301C283.232 24.0769 282.759 23.1999 282.083 22.3504C281.454 21.5573 280.611 20.9066 279.579 20.4145C278.602 19.9498 277.253 19.6936 275.778 19.6936C274.198 19.6936 272.731 19.9854 271.641 20.5218C270.548 21.0856 269.673 21.8156 269.038 22.6931C268.38 23.6031 267.92 24.6026 267.672 25.6529C267.398 26.7047 267.261 27.8288 267.261 28.9935V51.2572C267.261 52.4239 267.399 53.548 267.67 54.5881C267.927 55.6735 268.387 56.6822 269.039 57.5856C269.687 58.4793 270.565 59.2022 271.642 59.7304Z" fill="white"></path>
  <path d="M110.684 75.9916C110.684 76.2733 110.911 76.5 111.191 76.5H112.782C112.788 76.5 112.794 76.4999 112.8 76.4997C112.806 76.4994 112.812 76.499 112.818 76.4985C114.278 76.3932 115.503 76.042 116.466 75.4502C117.393 74.8635 118.16 74.1182 118.752 73.223C119.363 72.2443 119.802 71.2911 120.095 70.3069C120.409 69.226 120.678 68.2077 120.919 67.1869L122.627 59.5876L131.126 20.1328C131.158 19.9828 131.121 19.8257 131.025 19.7063C130.929 19.5868 130.784 19.5172 130.631 19.5172H129.009C128.77 19.5172 128.563 19.6849 128.513 19.9198L121.34 53.8703L114.156 19.961C114.107 19.7307 113.907 19.5639 113.673 19.5583C113.673 19.5583 112.033 19.5166 112.029 19.5166C111.879 19.5166 111.736 19.5838 111.639 19.7002C111.54 19.8201 111.501 19.9788 111.534 20.1308L119.98 60.0507L118.378 67.164L118.24 67.6617C118.064 68.2977 117.884 68.9449 117.69 69.59C117.444 70.3831 117.137 71.0801 116.767 71.6948C116.342 72.3145 115.815 72.8295 115.203 73.225C114.603 73.6129 113.753 73.8457 112.708 73.9154L111.191 73.9113C111.056 73.9113 110.928 73.9642 110.833 74.0598C110.737 74.1548 110.684 74.284 110.684 74.4197V75.9916Z" fill="#FFBD30"></path>
  <path d="M150.072 60.0529C150.072 60.334 150.299 60.5612 150.579 60.5612H152.137C152.417 60.5612 152.643 60.334 152.643 60.0529V28.9951C152.643 27.865 152.514 26.745 152.259 25.6647C152.009 24.6052 151.548 23.6057 150.884 22.6866C150.222 21.8065 149.34 21.079 148.254 20.5183C147.14 19.9713 145.792 19.6942 144.246 19.6942C142.611 19.6942 141.236 20.0109 140.151 20.6388C139.506 21.0287 138.919 21.5376 138.396 22.1624V20.286C138.396 20.0053 138.169 19.7776 137.889 19.7776H136.33C136.051 19.7776 135.824 20.0053 135.824 20.286V60.0529C135.824 60.334 136.051 60.5612 136.33 60.5612H137.889C138.168 60.5612 138.395 60.334 138.395 60.0529V29.02C138.395 28.1771 138.52 27.3484 138.772 26.5442C138.995 25.7562 139.349 25.0444 139.848 24.3749C140.311 23.7745 140.908 23.2717 141.675 22.8375C142.386 22.4349 143.251 22.2305 144.245 22.2305C145.397 22.2305 146.322 22.4298 147.064 22.8375C147.81 23.261 148.389 23.7603 148.83 24.3581C149.292 25.0094 149.606 25.716 149.788 26.5177C149.977 27.3474 150.072 28.1888 150.072 29.02V60.0529Z" fill="#FFBD30"></path>
  <path d="M167.944 60.5606C166.362 60.5606 165.019 60.2805 163.952 59.7304C162.874 59.2022 161.995 58.4783 161.349 57.5846C160.697 56.6822 160.236 55.673 159.981 54.5881C159.71 53.549 159.571 52.425 159.571 51.2582V28.9935C159.571 27.8277 159.71 26.7037 159.983 25.6529C160.231 24.6031 160.691 23.6036 161.349 22.6931C161.983 21.8156 162.859 21.0856 163.952 20.5218C165.042 19.9854 166.508 19.6936 168.089 19.6936C169.564 19.6936 170.914 19.9498 171.891 20.4145C172.923 20.9066 173.766 21.5584 174.395 22.3504C175.07 23.1994 175.543 24.0769 175.843 25.0301C176.152 26.0174 176.385 27.6168 176.385 28.1724C176.385 28.6534 176.391 29.5934 176.391 29.5934C176.392 29.7286 176.339 29.8588 176.244 29.9548C176.148 30.0509 176.019 30.1048 175.884 30.1048H174.481C174.206 30.1048 173.982 29.8857 173.974 29.6096L173.938 28.2604C173.923 27.7042 173.741 26.7357 173.515 26.0072C173.296 25.3229 172.945 24.6844 172.471 24.1135C172.033 23.5848 171.451 23.1237 170.741 22.7424C170.088 22.4246 169.094 22.2299 168.101 22.2299C166.944 22.2299 165.875 22.4526 165.169 22.8405C164.405 23.2599 163.83 23.7551 163.411 24.355C162.946 25.0093 162.633 25.7159 162.451 26.5176C162.245 27.3239 162.142 28.1607 162.142 29.0194V51.2338C162.142 52.1235 162.245 52.9786 162.448 53.7727C162.633 54.5881 162.947 55.2938 163.409 55.9445C163.832 56.5713 164.402 57.0629 165.159 57.4569C165.884 57.8321 166.82 58.0228 167.943 58.0228C169.006 58.0228 169.911 57.8616 170.634 57.5429C171.317 57.2414 171.915 56.7996 172.41 56.2292C172.849 55.6984 173.192 55.0604 173.423 54.3411C173.608 53.6973 173.74 52.6667 173.803 52.1707L173.803 52.1697L173.824 52.0137C173.873 51.638 173.951 50.8854 173.974 50.6625L173.981 50.5988C174.007 50.339 174.224 50.1428 174.484 50.1428L176.035 50.1423C176.18 50.1423 176.318 50.2043 176.414 50.3131C176.511 50.4219 176.556 50.5663 176.539 50.7107C176.459 51.3792 176.374 52.1281 176.369 52.2226L176.361 52.2221C176.295 53.2292 175.806 55.1982 175.799 55.2216C175.483 56.2297 174.975 57.1443 174.289 57.942C173.611 58.7305 172.77 59.3507 171.72 59.8398C170.691 60.3197 169.421 60.5606 167.944 60.5606Z" fill="#FFBD30"></path>
  <path d="M94.925 59.7381C96.0765 60.2922 97.4666 60.5611 99.1759 60.5611C100.959 60.5611 102.386 60.3105 103.541 59.791C104.725 59.2495 105.672 58.52 106.356 57.6196C107.051 56.7051 107.547 55.6364 107.831 54.4402C108.124 53.2094 108.265 51.9649 108.265 50.636C108.265 50.0096 108.212 49.3284 108.111 48.666C108 47.9415 107.839 47.277 107.613 46.6197C107.336 45.8917 106.985 45.2135 106.563 44.5887C106.043 43.8602 105.495 43.2333 104.881 42.6629L96.1646 34.8343C95.3844 34.1648 94.8439 33.4083 94.5572 32.5868C94.2547 31.7205 94.0896 30.5674 94.0663 29.1684C94.0663 28.2207 94.1666 27.3565 94.3728 26.5268C94.5749 25.7139 94.9113 24.9996 95.4072 24.3326C95.848 23.7108 96.4427 23.2172 97.2249 22.8237C98.0076 22.4302 98.9636 22.2299 100.065 22.2299C101.013 22.2299 101.854 22.4053 102.547 22.7429C103.257 23.1242 103.839 23.5848 104.277 24.1135C104.75 24.6839 105.102 25.3224 105.321 26.0067C105.546 26.7337 105.728 27.7017 105.743 28.2609L105.78 29.6102C105.788 29.8852 106.013 30.1048 106.287 30.1048H107.69C107.825 30.1048 107.954 30.0514 108.05 29.9548C108.145 29.8582 108.197 29.7286 108.197 29.5934C108.197 29.5934 108.191 28.6539 108.191 28.1724C108.191 27.6173 107.958 26.0174 107.649 25.0306C107.35 24.0769 106.876 23.1999 106.201 22.3509C105.572 21.5583 104.729 20.9071 103.697 20.4155C102.692 19.9371 101.462 19.6936 100.042 19.6936C98.4879 19.6936 97.1414 19.9615 96.0385 20.4907C94.9711 21.0027 94.0693 21.7215 93.3601 22.6275C92.6888 23.4846 92.1999 24.5024 91.9056 25.6585C91.63 26.7739 91.4958 27.9218 91.4958 29.1694C91.4958 29.9996 91.5282 30.6595 91.5976 31.2466C91.6705 31.8567 91.8154 32.4835 92.0409 33.1643C92.2526 33.8038 92.548 34.3986 92.935 34.9706C93.2694 35.4998 93.738 36.03 94.4594 36.6965L103.131 44.4825C103.987 45.2974 104.646 46.2384 105.087 47.2664C105.523 48.363 105.744 49.4982 105.744 50.64C105.744 51.5088 105.668 52.4016 105.505 53.4371C105.342 54.3299 105.02 55.1255 104.549 55.8037C104.062 56.5037 103.396 57.0594 102.56 57.458C101.701 57.8906 100.594 58.1011 99.1759 58.1011C97.9458 58.1011 96.9554 57.8937 96.1479 57.4636C95.3125 57.0187 94.6377 56.4488 94.1367 55.761C93.6027 55.0589 93.2162 54.248 92.9852 53.3411C92.7288 52.428 92.5581 50.489 92.5566 50.4707C92.5449 50.3324 92.4765 50.2048 92.3681 50.1174C92.2779 50.0442 92.1665 50.0061 92.052 50.0061C92.0292 50.0061 92.0059 50.0081 91.9831 50.0111L90.3503 50.2343C90.0813 50.2714 89.8898 50.5155 89.9146 50.7854C89.9238 50.8851 90.1462 53.2424 90.5043 54.4005C90.8888 55.6415 91.4203 56.6679 92.1244 57.5271C92.8524 58.4524 93.7947 59.1966 94.925 59.7381Z" fill="#FFBD30"></path>
  <defs>
    <clipPath id="clip0_105_776">
      <rect width="64" height="64" fill="white" transform="translate(8 8)"></rect>
    </clipPath>
  </defs>
</svg>